<?xml version="1.0" encoding="iso-8859-1"?>
<!-- Generator: Adobe Illustrator 19.0.0, SVG Export Plug-In . SVG Version: 6.00 Build 0)  -->
<svg version="1.1" id="Capa_1" xmlns="http://www.w3.org/2000/svg" xmlns:xlink="http://www.w3.org/1999/xlink" x="0px" y="0px"
	 viewBox="0 0 512.001 512.001" style="enable-background:new 0 0 512.001 512.001;" xml:space="preserve">
<g>
	<rect x="23.273" y="263.76" style="fill:#D4CBF6;" width="93.09" height="170.67"/>
	<rect x="116.36" y="263.76" style="fill:#D4CBF6;" width="93.09" height="170.67"/>
	<rect x="209.46" y="263.76" style="fill:#D4CBF6;" width="93.09" height="170.67"/>
</g>
<g>
	<rect x="256" y="263.76" style="fill:#D4CBF6;" width="46.545" height="170.67"/>
	<rect x="302.55" y="263.76" style="fill:#D4CBF6;" width="93.09" height="170.67"/>
	<rect x="395.64" y="263.76" style="fill:#D4CBF6;" width="93.09" height="170.67"/>
</g>
<path style="fill:#2D3A6E;" d="M488.727,54.303H23.273C10.42,54.303,0,64.723,0,77.576v186.182v170.667
	c0,12.851,10.42,23.273,23.273,23.273h93.091h93.091h93.091h93.091h93.091c12.853,0,23.273-10.422,23.273-23.273V263.758V77.576
	C512,64.723,501.58,54.303,488.727,54.303z M46.545,287.03h38.788v54.303c0,6.883,3.007,13.05,7.758,17.31v52.508H46.545V287.03z
	 M139.636,358.644c4.752-4.26,7.758-10.428,7.758-17.31V287.03h31.03v54.303c0,6.883,3.007,13.05,7.758,17.31v52.508h-46.545
	L139.636,358.644L139.636,358.644z M232.727,358.644c4.752-4.26,7.758-10.428,7.758-17.31V287.03h31.03v54.303
	c0,6.883,3.007,13.05,7.758,17.31v52.508h-46.545v-52.507H232.727z M325.818,358.644c4.752-4.26,7.758-10.428,7.758-17.31V287.03
	h31.03v54.303c0,6.883,3.007,13.05,7.758,17.31v52.508h-46.545L325.818,358.644L325.818,358.644z M465.455,411.151H418.91v-52.508
	c4.752-4.26,7.758-10.428,7.758-17.31V287.03h38.788L465.455,411.151L465.455,411.151z"/>
<g>
	<path style="fill:#6A56CF;" d="M116.365,193.933c-6.128,0-12.117-2.482-16.46-6.813c-4.329-4.343-6.813-10.332-6.813-16.46
		c0-6.111,2.484-12.117,6.813-16.446c4.344-4.344,10.332-6.825,16.46-6.825c6.113,0,12.119,2.481,16.448,6.825
		c4.343,4.329,6.825,10.335,6.825,16.446c0,6.128-2.484,12.133-6.825,16.46C128.484,191.451,122.494,193.933,116.365,193.933z"/>
	<path style="fill:#CB50BE;" d="M209.456,193.933c-6.128,0-12.131-2.482-16.46-6.813c-4.329-4.327-6.813-10.332-6.813-16.46
		c0-6.111,2.484-12.117,6.813-16.446c4.329-4.344,10.332-6.825,16.46-6.825s12.117,2.481,16.448,6.825
		c4.343,4.329,6.825,10.335,6.825,16.446c0,6.128-2.484,12.133-6.825,16.46C221.573,191.451,215.585,193.933,209.456,193.933z"/>
</g>
<path style="fill:#2D3A6E;" d="M488.727,54.303H256V287.03h15.515v54.303c0,6.883,3.007,13.05,7.758,17.31v52.508H256v46.545h46.545
	h93.091h93.091c12.853,0,23.273-10.422,23.273-23.273V263.758V77.576C512,64.723,501.58,54.303,488.727,54.303z M372.364,411.151
	h-46.545v-52.508c4.752-4.26,7.758-10.428,7.758-17.31V287.03h31.03v54.303c0,6.883,3.007,13.05,7.758,17.31v52.508H372.364z
	 M465.455,411.151H418.91v-52.508c4.752-4.26,7.758-10.428,7.758-17.31V287.03h38.788L465.455,411.151L465.455,411.151z"/>
<g>
	<path style="fill:#6A56CF;" d="M302.547,193.933c-6.128,0-12.131-2.482-16.46-6.813c-4.329-4.327-6.813-10.316-6.813-16.46
		c0-6.127,2.484-12.117,6.813-16.446c4.329-4.344,10.332-6.825,16.46-6.825s12.117,2.481,16.462,6.825
		c4.327,4.329,6.811,10.335,6.811,16.446c0,6.128-2.484,12.133-6.811,16.46C314.664,191.451,308.675,193.933,302.547,193.933z"/>
	<path style="fill:#6A56CF;" d="M395.638,193.933c-6.128,0-12.131-2.482-16.46-6.813c-4.329-4.327-6.813-10.332-6.813-16.46
		c0-6.127,2.484-12.117,6.813-16.446s10.332-6.811,16.46-6.811c6.129,0,12.117,2.482,16.448,6.811
		c4.343,4.329,6.825,10.319,6.825,16.446c0,6.128-2.484,12.133-6.825,16.46C407.755,191.451,401.766,193.933,395.638,193.933z"/>
</g>
</svg>
