<?xml version="1.0" encoding="UTF-8" standalone="no"?>
<svg
   xmlns:dc="http://purl.org/dc/elements/1.1/"
   xmlns:cc="http://creativecommons.org/ns#"
   xmlns:rdf="http://www.w3.org/1999/02/22-rdf-syntax-ns#"
   xmlns:svg="http://www.w3.org/2000/svg"
   xmlns="http://www.w3.org/2000/svg"
   xmlns:sodipodi="http://sodipodi.sourceforge.net/DTD/sodipodi-0.dtd"
   xmlns:inkscape="http://www.inkscape.org/namespaces/inkscape"
   version="1.1"
   id="Capa_1"
   x="0px"
   y="0px"
   viewBox="0 0 512.001 512.001"
   xml:space="preserve"
   sodipodi:docname="app-icon-ios.svg"
   inkscape:version="0.92.2 5c3e80d, 2017-08-06"
   width="512.00098"
   height="512.00098"
   inkscape:label="stream lights"><metadata
     id="metadata3813"><rdf:RDF><cc:Work
         rdf:about=""><dc:format>image/svg+xml</dc:format><dc:type
           rdf:resource="http://purl.org/dc/dcmitype/StillImage" /><dc:title /></cc:Work></rdf:RDF></metadata><defs
     id="defs3811" /><sodipodi:namedview
     pagecolor="#ffffff"
     bordercolor="#666666"
     borderopacity="1"
     objecttolerance="10"
     gridtolerance="10"
     guidetolerance="10"
     inkscape:pageopacity="0"
     inkscape:pageshadow="2"
     inkscape:window-width="1440"
     inkscape:window-height="786"
     id="namedview3809"
     showgrid="false"
     inkscape:zoom="1.1191385"
     inkscape:cx="140.59394"
     inkscape:cy="250.64935"
     inkscape:window-x="0"
     inkscape:window-y="1"
     inkscape:window-maximized="1"
     inkscape:current-layer="Capa_1" /><path
     id="rect3788"
     style="display:inline;fill:#d4cbf6;stroke-width:0.95180565"
     d="m 382.95155,263.76001 h 84.33339 v 170.67 h -84.33339 z m -84.33342,0 h 84.33339 v 170.67 h -84.33339 z m -42.17121,0 h 42.16669 v 170.67 h -42.16669 z m -42.16216,0 h 84.33338 v 170.67 h -84.33338 z m -84.34247,0 h 84.3334 v 170.67 h -84.3334 z m -84.330677,0 h 84.333397 v 170.67 H 45.611613 Z"
     inkscape:connector-curvature="0" /><path
     style="display:inline;fill:#2d3a6e;stroke-width:1.12710607"
     d="M 23.294227,9.8e-4 C 10.429749,9.8e-4 0,13.226061 0,29.53953 v 236.30841 216.61449 c 0,16.31091 10.429749,29.53855 23.294227,29.53855 h 93.174953 93.17297 46.12909 0.45753 46.12908 93.17493 93.17299 C 501.57029,512.00098 512,498.77334 512,482.46243 V 265.84794 29.53953 C 512,13.226071 501.57029,9.8e-4 488.70577,9.8e-4 h -232.477 -0.45753 z M 46.586506,273.3865 h 38.821761 v 68.92405 c 0,8.73485 3.008501,16.56343 7.764747,21.97035 v 66.64299 H 46.586506 Z m 100.937804,0 h 31.05892 v 68.92405 c 0,8.73485 3.00847,16.56343 7.76469,21.97035 v 66.64299 h -46.58648 -0.002 V 364.2809 c 4.75523,-5.40692 7.76481,-13.23421 7.76482,-21.97035 z m 93.1769,0 h 15.07003 0.45753 15.07197 v 68.92405 c 0,8.73614 3.00949,16.56343 7.76484,21.97035 v 66.64299 h -22.83681 -0.45753 -22.83682 V 364.2809 c 4.75535,-5.40692 7.76679,-13.23421 7.76679,-21.97035 z m 92.71556,0 h 31.05892 v 68.92405 c 0,8.73614 3.00959,16.56343 7.76483,21.97035 v 66.64299 h -0.002 -46.58627 V 364.2809 c 4.75623,-5.40692 7.7647,-13.2355 7.7647,-21.97035 z m 93.17495,0 h 38.82179 V 430.92389 H 418.82702 V 364.2809 c 4.75623,-5.40692 7.7647,-13.2355 7.7647,-21.97035 z"
     id="path3800"
     inkscape:connector-curvature="0"
     sodipodi:nodetypes="sscssccccccsscssccsccsccccccscccccscccccsccccccscccscccccsccccccsc"
     inkscape:label="path3800" /><g
     id="g3847"
     style="display:inline"
     inkscape:label="lights"><path
       style="fill:#6a56cf"
       d="m 302.547,193.933 c -6.128,0 -12.131,-2.482 -16.46,-6.813 -4.329,-4.327 -6.813,-10.316 -6.813,-16.46 0,-6.127 2.484,-12.117 6.813,-16.446 4.329,-4.344 10.332,-6.825 16.46,-6.825 6.128,0 12.117,2.481 16.462,6.825 4.327,4.329 6.811,10.335 6.811,16.446 0,6.128 -2.484,12.133 -6.811,16.46 -4.345,4.331 -10.334,6.813 -16.462,6.813 z"
       id="path3802"
       inkscape:connector-curvature="0" /><path
       style="fill:#6a56cf"
       d="m 395.638,193.933 c -6.128,0 -12.131,-2.482 -16.46,-6.813 -4.329,-4.327 -6.813,-10.332 -6.813,-16.46 0,-6.127 2.484,-12.117 6.813,-16.446 4.329,-4.329 10.332,-6.811 16.46,-6.811 6.129,0 12.117,2.482 16.448,6.811 4.343,4.329 6.825,10.319 6.825,16.446 0,6.128 -2.484,12.133 -6.825,16.46 -4.331,4.331 -10.32,6.813 -16.448,6.813 z"
       id="path3804"
       inkscape:connector-curvature="0" /><path
       style="fill:#6a56cf"
       d="m 116.365,193.933 c -6.128,0 -12.117,-2.482 -16.46,-6.813 -4.329,-4.343 -6.813,-10.332 -6.813,-16.46 0,-6.111 2.484,-12.117 6.813,-16.446 4.344,-4.344 10.332,-6.825 16.46,-6.825 6.113,0 12.119,2.481 16.448,6.825 4.343,4.329 6.825,10.335 6.825,16.446 0,6.128 -2.484,12.133 -6.825,16.46 -4.329,4.331 -10.319,6.813 -16.448,6.813 z"
       id="path3794"
       inkscape:connector-curvature="0" /><path
       style="fill:#cb50be"
       d="m 209.456,193.933 c -6.128,0 -12.131,-2.482 -16.46,-6.813 -4.329,-4.327 -6.813,-10.332 -6.813,-16.46 0,-6.111 2.484,-12.117 6.813,-16.446 4.329,-4.344 10.332,-6.825 16.46,-6.825 6.128,0 12.117,2.481 16.448,6.825 4.343,4.329 6.825,10.335 6.825,16.446 0,6.128 -2.484,12.133 -6.825,16.46 -4.331,4.331 -10.319,6.813 -16.448,6.813 z"
       id="path3796"
       inkscape:connector-curvature="0" /></g></svg>